<svg width="81" height="81" viewBox="0 0 81 81" fill="none" xmlns="http://www.w3.org/2000/svg">
<g clip-path="url(#clip0_31_203)">
<rect x="0.817871" y="0.615479" width="79.4277" height="79.4277" rx="16.0234" transform="rotate(-0.0261925 0.817871 0.615479)" fill="url(#paint0_linear_31_203)"/>
<path fill-rule="evenodd" clip-rule="evenodd" d="M41.4661 29.9851C40.7425 27.2074 40.4639 25.4575 40.1845 21.9296C39.7072 14.9352 39.3911 15.4829 39.0726 20.3744C39.0747 24.9303 38.0494 30.5978 36.6341 33.6264C35.857 35.3491 34.1358 37.7112 33.025 38.6006C29.9981 40.9633 26.2761 42.0762 19.1648 42.7183C18.1926 42.8021 17.4704 42.9691 17.5538 43.0802C17.6372 43.1913 19.1652 43.4406 20.9431 43.6065C27.4717 44.2702 30.2222 45.0746 33.1956 47.3234C34.0556 47.9873 35.2319 49.2263 35.8543 50.1834C35.9863 50.3745 36.1308 50.6264 36.2808 50.9333C37.3097 53.0719 38.0351 59.9331 38.7921 75.2949C38.8324 76.0793 38.879 76.9765 38.9287 77.9308C39.0864 80.9646 39.2741 84.5742 39.3808 86.9621C39.549 90.1011 39.8026 97.9071 39.9722 104.324C40.1418 110.741 40.3674 118.103 40.4797 120.714L40.6485 125.436L40.8677 118.658C40.9771 114.935 41.0566 106.546 41.0814 100.046C41.1001 80.0997 42.0061 56.7088 42.9208 52.3192C43.4198 50.0411 45.6409 47.2899 48.307 45.733C50.0012 44.7599 52.9731 43.7585 55.3342 43.3685C58.7509 42.8392 61.5842 42.5045 62.6121 42.504C64.7511 42.503 63.1676 42.226 58.6948 41.8113C52.5553 41.2585 49.9437 40.593 47.415 39.0107C45.6036 37.8568 42.9979 34.6949 42.715 33.3417C42.249 33.0004 41.8325 31.4481 41.4661 29.9851Z" fill="url(#paint1_linear_31_203)"/>
</g>
<rect x="1.3181" y="1.11525" width="78.4277" height="78.4277" rx="15.5234" transform="rotate(-0.0261925 1.3181 1.11525)" stroke="white"/>
<defs>
<linearGradient id="paint0_linear_31_203" x1="40.5317" y1="0.615479" x2="40.5317" y2="80.0432" gradientUnits="userSpaceOnUse">
<stop stop-color="#CF0000"/>
<stop offset="1" stop-color="#2A0000" stop-opacity="0.82"/>
</linearGradient>
<linearGradient id="paint1_linear_31_203" x1="40.539" y1="16.6863" x2="40.5888" y2="125.436" gradientUnits="userSpaceOnUse">
<stop stop-color="white"/>
<stop offset="1" stop-color="#C3C3C3" stop-opacity="0.35"/>
</linearGradient>
<clipPath id="clip0_31_203">
<rect x="0.817871" y="0.615479" width="79.4277" height="79.4277" rx="16.0234" transform="rotate(-0.0261925 0.817871 0.615479)" fill="white"/>
</clipPath>
</defs>
</svg>
