<svg width="75" height="75" viewBox="0 0 75 75" fill="none" xmlns="http://www.w3.org/2000/svg">
<path fill-rule="evenodd" clip-rule="evenodd" d="M44.812 13.3463C43.9093 14.2499 43.91 15.7033 43.9113 18.6103C43.9127 21.5173 43.9133 22.9708 44.8169 23.8735C45.7204 24.7762 47.1739 24.7755 50.0808 24.7742L56.2475 24.7714C59.1545 24.77 60.6079 24.7694 61.5106 23.8659C62.4133 22.9624 62.4127 21.5089 62.4113 18.6019C62.41 15.6949 62.4093 14.2414 61.5058 13.3387C60.6023 12.436 59.1488 12.4367 56.2419 12.438L50.0752 12.4408C47.1682 12.4422 45.7147 12.4428 44.812 13.3463ZM13.9956 50.3604C13.0929 51.264 13.0936 52.7175 13.0949 55.6244C13.0963 58.5314 13.0969 59.9849 14.0004 60.8876C14.9039 61.7903 16.3574 61.7896 19.2644 61.7883L25.4311 61.7854C28.3381 61.7841 29.7916 61.7835 30.6943 60.8799C31.5969 59.9764 31.5963 58.5229 31.5949 55.616C31.5936 52.709 31.5929 51.2555 30.6894 50.3528C29.7859 49.4501 28.3324 49.4508 25.4254 49.4521L19.2588 49.4549C16.3518 49.4563 14.8983 49.4569 13.9956 50.3604ZM43.9226 43.277C43.9213 40.37 43.9206 38.9165 44.8233 38.013C45.726 37.1095 47.1795 37.1088 50.0865 37.1075L56.2531 37.1047C59.1601 37.1034 60.6136 37.1027 61.5171 38.0054C62.4206 38.9081 62.4213 40.3616 62.4226 43.2685L62.4283 55.6019C62.4296 58.5088 62.4302 59.9623 61.5276 60.8658C60.6249 61.7694 59.1714 61.77 56.2644 61.7713L50.0977 61.7742C47.1908 61.7755 45.7373 61.7762 44.8338 60.8735C43.9302 59.9708 43.9296 58.5173 43.9283 55.6103L43.9226 43.277ZM13.9787 13.3604C13.076 14.2639 13.0767 15.7174 13.078 18.6244L13.0837 30.9578C13.085 33.8647 13.0856 35.3182 13.9891 36.2209C14.8927 37.1236 16.3461 37.1229 19.2531 37.1216L25.4198 37.1188C28.3268 37.1175 29.7803 37.1168 30.683 36.2133C31.5856 35.3097 31.585 33.8563 31.5836 30.9493L31.578 18.616C31.5767 15.709 31.576 14.2555 30.6725 13.3528C29.769 12.4501 28.3155 12.4508 25.4085 12.4521L19.2419 12.4549C16.3349 12.4563 14.8814 12.4569 13.9787 13.3604Z" fill="white"/>
<path fill-rule="evenodd" clip-rule="evenodd" d="M15.6148 14.9951L15.6223 14.9909C15.6282 14.9878 15.6384 14.9828 15.654 14.9764C15.7211 14.9487 15.8702 14.9015 16.1679 14.8613C16.8176 14.7737 17.7241 14.7683 19.243 14.7676L25.4097 14.7648C26.9286 14.7641 27.8351 14.7686 28.4848 14.8557C28.7826 14.8956 28.9317 14.9427 28.9989 14.9703C29.0144 14.9766 29.0246 14.9816 29.0306 14.9847L29.0381 14.989L29.0424 14.9965C29.0455 15.0024 29.0505 15.0127 29.0569 15.0282C29.0845 15.0953 29.1318 15.2444 29.1719 15.5421C29.2596 16.1918 29.2649 17.0984 29.2656 18.6172L29.2712 30.9505C29.2719 32.4694 29.2674 33.3759 29.1804 34.0256C29.1405 34.3234 29.0934 34.4727 29.0658 34.5396C29.0594 34.5554 29.0544 34.5655 29.0513 34.5714L29.0471 34.5791L29.0396 34.5831C29.0336 34.5865 29.0234 34.5914 29.0078 34.5976C28.9407 34.6254 28.7916 34.6726 28.4939 34.7129C27.8442 34.8004 26.9377 34.8058 25.4188 34.8065L19.2522 34.8093C17.7333 34.81 16.8268 34.8055 16.177 34.7185C15.8793 34.6785 15.7301 34.6314 15.663 34.6037C15.6474 34.5976 15.6372 34.5926 15.6312 34.5892L15.6237 34.5852L15.6195 34.5775C15.6164 34.5717 15.6114 34.5615 15.605 34.5458C15.5773 34.4789 15.5301 34.3297 15.4899 34.0318C15.4023 33.3822 15.3969 32.4757 15.3962 30.9569L15.3906 18.6236C15.3899 17.1047 15.3944 16.1982 15.4815 15.5484C15.5214 15.2507 15.5684 15.1015 15.596 15.0344C15.6024 15.0188 15.6074 15.0086 15.6105 15.0026L15.6148 14.9951ZM19.1029 10.1427C19.1488 10.1427 19.1948 10.1427 19.2409 10.1426L25.4076 10.1398C25.4537 10.1398 25.4997 10.1398 25.5455 10.1397C26.88 10.139 28.1036 10.1383 29.099 10.2717C30.1951 10.4185 31.3538 10.7647 32.3069 11.7171C33.2604 12.6694 33.6075 13.8278 33.7554 14.9238C33.8897 15.9191 33.8902 17.1426 33.8905 18.4771C33.8906 18.523 33.8906 18.569 33.8906 18.6151L33.8962 30.9484C33.8963 30.9947 33.8963 31.0406 33.8963 31.0866C33.8972 32.421 33.8978 33.6445 33.7644 34.6398C33.6175 35.736 33.2715 36.8946 32.3189 37.8478C31.3666 38.8013 30.2083 39.1484 29.1123 39.2963C28.117 39.4305 26.8934 39.4311 25.5589 39.4314C25.513 39.4314 25.4671 39.4314 25.421 39.4315L19.2543 39.4343C19.2082 39.4343 19.1622 39.4343 19.1163 39.4343C17.7818 39.4353 16.5582 39.4358 15.5628 39.3025C14.4667 39.1556 13.3081 38.8095 12.3548 37.8569C11.4015 36.9046 11.0543 35.7463 10.9064 34.6503C10.7722 33.6551 10.7717 32.4316 10.7713 31.0971C10.7713 31.0512 10.7713 31.0052 10.7712 30.959L10.7656 18.6257C10.7656 18.5796 10.7656 18.5336 10.7655 18.4877C10.7648 17.1532 10.7641 15.9296 10.8974 14.9342C11.0443 13.8381 11.3905 12.6794 12.3428 11.7262C13.2953 10.7729 14.4536 10.4257 15.5496 10.2778C16.5448 10.1436 17.7684 10.1431 19.1029 10.1427ZM46.4557 14.9768L46.448 14.981L46.444 14.9885C46.4409 14.9945 46.4356 15.0047 46.4295 15.0203C46.4018 15.0874 46.3547 15.2366 46.3147 15.5343C46.2278 16.1841 46.2232 17.0906 46.2239 18.6095C46.2246 20.1283 46.23 21.0349 46.3175 21.6845C46.3577 21.9822 46.405 22.1313 46.4328 22.1985C46.4352 22.2047 46.4396 22.2147 46.4396 22.2147C46.4426 22.2215 46.4473 22.2302 46.4473 22.2302L46.4513 22.2377L46.459 22.242C46.4649 22.2451 46.475 22.25 46.4908 22.2564C46.5577 22.284 46.7069 22.3311 47.0048 22.371C47.6545 22.4581 48.561 22.4626 50.0799 22.4619L56.2465 22.4591C57.7654 22.4584 58.6719 22.453 59.3215 22.3654C59.6193 22.3252 59.7685 22.278 59.8354 22.2503C59.8511 22.2439 59.8613 22.239 59.8672 22.2358L59.8749 22.2316L59.8789 22.2241C59.882 22.2181 59.8872 22.2079 59.8934 22.1923C59.9211 22.1252 59.9682 21.976 60.0081 21.6783C60.0951 21.0285 60.0996 20.122 60.0989 18.6031C60.0982 17.0843 60.0929 16.1777 60.0053 15.528C59.9651 15.2303 59.9179 15.0813 59.8901 15.0141C59.8839 14.9986 59.8787 14.9883 59.8756 14.9824L59.8716 14.9749L59.8639 14.9706C59.858 14.9675 59.8478 14.9625 59.8321 14.9562C59.7652 14.9286 59.6159 14.8815 59.318 14.8416C58.6683 14.7545 57.7618 14.75 56.243 14.7507L50.0763 14.7536C48.5575 14.7542 47.651 14.7596 47.0014 14.8472C46.7035 14.8874 46.5543 14.9346 46.4874 14.9623C46.4717 14.9687 46.4615 14.9737 46.4557 14.9768ZM49.9364 10.1286L56.3787 10.1256C57.7135 10.1249 58.937 10.1242 59.9323 10.2576C61.0285 10.4044 62.1871 10.7506 63.1403 11.703C64.0937 12.6553 64.4408 13.8137 64.5887 14.9097C64.723 15.905 64.7236 17.1285 64.7239 18.463L64.724 18.739C64.7249 20.0735 64.7255 21.2971 64.5921 22.2924C64.4452 23.3886 64.0992 24.5472 63.1466 25.5005C62.1942 26.4538 61.036 26.801 59.9399 26.9489C58.9447 27.0831 57.7212 27.0835 56.3865 27.084L49.9441 27.0869C48.6094 27.0877 47.3859 27.0884 46.3905 26.9551C45.2944 26.8082 44.1358 26.462 43.1826 25.5096C42.2291 24.5572 41.882 23.3989 41.7341 22.3029C41.5999 21.3076 41.5993 20.0841 41.599 18.7495C41.599 18.7037 41.599 18.6577 41.5989 18.6116C41.5989 18.5655 41.5989 18.5195 41.5989 18.4736C41.598 17.1391 41.5974 15.9155 41.7308 14.9201C41.8776 13.824 42.2237 12.6653 43.1763 11.7121C44.1286 10.7589 45.2869 10.4116 46.3829 10.2637C47.3782 10.1295 48.6016 10.129 49.9364 10.1286ZM49.9477 34.7952L56.39 34.7923C57.7248 34.7917 58.9482 34.7908 59.9436 34.9242C61.0398 35.0711 62.1983 35.4171 63.1515 36.3697C64.105 37.322 64.4521 38.4803 64.6 39.5763C64.7343 40.5716 64.7348 41.7951 64.7351 43.1298L64.7409 55.7391C64.7418 57.0736 64.7424 58.2971 64.609 59.2924C64.4621 60.3886 64.1161 61.5472 63.1635 62.5004C62.2112 63.4538 61.0529 63.8009 59.9569 63.9488C58.9616 64.0831 57.7382 64.0837 56.4034 64.084L49.9611 64.0869C48.6263 64.0878 47.4028 64.0884 46.4075 63.955C45.3113 63.8081 44.1527 63.4621 43.1995 62.5095C42.246 61.5572 41.8989 60.3989 41.751 59.3029C41.6168 58.3076 41.6162 57.0842 41.6159 55.7497L41.6102 43.2782C41.6102 43.2323 41.6102 43.186 41.6101 43.1404C41.6092 41.8056 41.6087 40.5822 41.742 39.5868C41.8889 38.4906 42.2349 37.332 43.1876 36.3789C44.1399 35.4254 45.2981 35.0783 46.3942 34.9304C47.3894 34.7961 48.6129 34.7959 49.9477 34.7952ZM46.467 39.6435L46.4592 39.6475L46.4552 39.6553C46.4522 39.6611 46.4469 39.6713 46.4408 39.687C46.413 39.7542 46.3659 39.9032 46.326 40.2011C46.239 40.8508 46.2345 41.7573 46.2352 43.2761L46.2408 55.6094C46.2415 57.1283 46.2469 58.0348 46.3344 58.6844C46.3747 58.9822 46.4219 59.1314 46.4497 59.1983C46.4559 59.2141 46.4611 59.2242 46.4642 59.2301L46.4682 59.2378L46.4759 59.2418C46.4818 59.2452 46.492 59.2501 46.5077 59.2563C46.5746 59.284 46.7239 59.3311 47.0217 59.3711C47.6714 59.458 48.5779 59.4625 50.0968 59.4618L56.2634 59.459C57.7823 59.4583 58.6888 59.453 59.3384 59.3654C59.6362 59.3252 59.7854 59.278 59.8523 59.2502C59.8681 59.244 59.8782 59.2391 59.8841 59.2357L59.8918 59.2317L59.8958 59.224C59.8989 59.2181 59.9041 59.2079 59.9103 59.1922C59.938 59.1253 59.9851 58.976 60.0251 58.6781C60.112 58.0284 60.1165 57.1219 60.1158 55.6031L60.1102 43.2698C60.1095 41.7509 60.1042 40.8444 60.0166 40.1948C59.9764 39.897 59.9291 39.7481 59.9014 39.6809C59.8977 39.6716 59.8943 39.6642 59.8918 39.6584L59.8869 39.6491L59.8828 39.6414L59.8751 39.6374C59.8693 39.6343 59.8591 39.6291 59.8434 39.6229C59.7764 39.5952 59.6272 39.5481 59.3293 39.5081C58.6796 39.4212 57.7731 39.4167 56.2543 39.4174L50.0876 39.4202C48.5688 39.4209 47.6623 39.4262 47.0126 39.5138C46.7148 39.554 46.5656 39.6012 46.4987 39.629C46.483 39.6352 46.4728 39.6404 46.467 39.6435ZM15.6392 51.991L15.6317 51.995L15.6274 52.0027C15.6243 52.0085 15.6193 52.0187 15.613 52.0344C15.5854 52.1017 15.5383 52.2506 15.4984 52.5485C15.4113 53.1982 15.4068 54.1047 15.4075 55.6235C15.4082 57.1424 15.4135 58.0489 15.5012 58.6985C15.5413 58.9963 15.5886 59.1455 15.6162 59.2124C15.6226 59.2282 15.6276 59.2383 15.6307 59.2442L15.635 59.2519L15.6425 59.2559C15.6484 59.2593 15.6587 59.2642 15.6742 59.2704C15.7414 59.2981 15.8906 59.3452 16.1883 59.3852C16.8381 59.4721 17.7446 59.4766 19.2634 59.4759L25.4301 59.4731C26.949 59.4724 27.8555 59.4671 28.5052 59.3795C28.8029 59.3393 28.952 59.2921 29.0191 59.2643C29.027 59.2612 29.0387 59.2559 29.0387 59.2559L29.0509 59.2498L29.0583 59.2458L29.0626 59.238L29.0671 59.2291C29.0698 59.2232 29.0732 59.2158 29.0771 59.2063C29.1047 59.1394 29.1518 58.9901 29.1917 58.6922C29.2787 58.0425 29.2832 57.136 29.2825 55.6172C29.2818 54.0983 29.2765 53.1918 29.1889 52.5422C29.1487 52.2444 29.1015 52.0955 29.0738 52.0283C29.0674 52.0126 29.0624 52.0024 29.0593 51.9965L29.055 51.9888L29.0475 51.9848C29.0416 51.9817 29.0313 51.9765 29.0158 51.9703C28.9486 51.9426 28.7995 51.8955 28.5018 51.8556C27.852 51.7686 26.9455 51.7641 25.4266 51.7648L19.2599 51.7676C17.741 51.7683 16.8345 51.7736 16.1848 51.8612C15.8872 51.9014 15.738 51.9487 15.6709 51.9764C15.6554 51.9826 15.6451 51.9879 15.6392 51.991ZM19.1199 47.1427L25.5624 47.1397C26.8969 47.1391 28.1205 47.1382 29.1159 47.2716C30.2121 47.4185 31.3707 47.7645 32.3238 48.7172C33.2773 49.6695 33.6244 50.8277 33.7723 51.9238C33.9066 52.919 33.9071 54.1425 33.9075 55.4773L33.9076 55.7532C33.9085 57.0877 33.9091 58.3111 33.7757 59.3065C33.6288 60.4027 33.2828 61.5613 32.3302 62.5144C31.3779 63.4679 30.2196 63.815 29.1236 63.9629C28.1283 64.0972 26.9047 64.0978 25.5702 64.0981L19.1276 64.101C17.7931 64.1019 16.5695 64.1025 15.5741 63.9691C14.478 63.8222 13.3193 63.4762 12.3661 62.5236C11.4128 61.5713 11.0656 60.413 10.9177 59.317C10.7834 58.3217 10.783 57.0983 10.7826 55.7638L10.7825 55.4878C10.7817 54.153 10.781 52.9296 10.9143 51.9342C11.0612 50.838 11.4074 49.6795 12.3598 48.7263C13.3122 47.7728 14.4705 47.4257 15.5665 47.2778C16.5617 47.1435 17.7853 47.1433 19.1199 47.1427Z" fill="white"/>
</svg>
